<?xml version="1.0" encoding="UTF-8"?>
<svg width="100pt" height="100pt" version="1.1" viewBox="0 0 100 100" xmlns="http://www.w3.org/2000/svg">
 <path d="m41.02 38.621c-1.2383-0.76172-2.5273-1.4414-3.8594-2.0273-1.3008-0.62891-2.5352-1.3828-3.8047-2.0781-0.64844-0.36719-1.3242-0.69141-2.0156-0.96094-0.67969-0.25391-1.3828-0.4375-2.0977-0.54297-1.4961-0.23047-3-0.38672-4.5117-0.46094-1.3672-0.10547-2.7383-0.10547-4.1055 0-1.4375 0.15625-2.8594 0.43359-4.25 0.82422-0.72656 0.18359-1.4336 0.42578-2.1133 0.73438-0.64062 0.3125-1.2578 0.67188-1.8516 1.0703-0.57422 0.38672-1.1172 0.82031-1.6172 1.3008-0.86719 0.88281-1.5781 1.9062-2.1094 3.0234-0.49609 0.96094-0.89062 1.9688-1.1836 3.0078-0.3125 0.99609-0.48047 2.0273-0.5 3.0664 0 0.13281 0.003906 0.26562 0.011719 0.39844v0.003907c0.042969 0.44922 0.14062 0.89453 0.28125 1.3242 0.15234 0.48828 0.33984 0.96875 0.55469 1.4297 0.41016 0.96094 1.0469 1.8086 1.8516 2.4727 0.375 0.26953 0.78516 0.49609 1.2148 0.66797 0.41016 0.17578 0.83984 0.3125 1.2734 0.41016 1.043 0.24609 2.1211 0.31641 3.1875 0.21875 0.90625-0.082031 1.8047-0.21875 2.6953-0.40625 0.89063-0.17188 1.7695-0.38672 2.6523-0.60547 0.003906 0 0.019532-0.015626 0.011719-0.019532-1.625-0.40234-3.2734-0.69531-4.8906-1.1289 0.046875 0.015625 0.097656 0.027344 0.14453 0.042969l-0.003906-0.003907c-1.2812-0.33203-2.5234-0.79297-3.7109-1.3711-1.2266-0.76562-2.1602-1.9219-2.6445-3.2812-0.17578-0.45312-0.32031-0.91797-0.43359-1.3906-0.11328-0.55469-0.13672-1.1211-0.066406-1.6836 0.13281-0.875 0.34766-1.7383 0.63281-2.5781 0.17188-0.4375 0.36328-0.86328 0.57031-1.2812 0.12109-0.21484 0.24219-0.42578 0.375-0.62891 0.035157-0.042969 0.066407-0.085938 0.10156-0.12891l0.09375-0.09375c0.26172-0.22266 0.53516-0.42578 0.8125-0.62109 0.375-0.23438 0.75-0.45703 1.1367-0.67188h-0.003906c0.42188-0.22266 0.86328-0.41016 1.3164-0.5625 1.1484-0.35547 2.3242-0.62891 3.5117-0.82031 1.2383-0.1875 2.4883-0.26953 3.7422-0.24219 2.5195-0.042969 5.0391 0.20703 7.5039 0.75391 0.70703 0.22656 1.3984 0.50781 2.0625 0.83984 0.66016 0.32812 1.3047 0.69141 1.9492 1.0508 1.25 0.69922 2.5352 1.3086 3.8203 1.9375 0.6875 0.33594 1.3711 0.67969 2.0352 1.0742 0.64844 0.37891 1.2656 0.82031 1.8867 1.2539 1.2773 0.90625 2.5234 1.875 3.793 2.7969 1.2773 0.92578 2.5703 1.8125 3.8672 2.7031v-0.003906c1.25 0.84766 2.5391 1.6289 3.8711 2.3438 1.2852 0.70312 2.5977 1.3555 3.8711 2.1016 1.293 0.76562 2.5664 1.5898 3.8984 2.2852 1.3594 0.70703 2.7422 1.3398 4.1406 1.9492 1.418 0.62109 2.8203 1.2891 4.2578 1.8633h-0.003906c1.332 0.51953 2.7031 0.91797 4.1055 1.1953 1.457 0.34766 2.9297 0.59766 4.418 0.75391 1.9336 0.14453 3.8711 0.074219 5.7891-0.20312 0.46484-0.066406 0.92578-0.16016 1.3906-0.25v0.003906c1.3047-0.28125 2.5312-0.84766 3.5938-1.6562 1.0273-0.83594 1.8633-1.8789 2.4531-3.0664 0.26562-0.48438 0.47656-0.99609 0.64062-1.5234 0.12891-0.51172 0.21094-1.0352 0.23828-1.5625l-0.019531 0.015625c-0.027344 0.082031-0.058594 0.16406-0.089844 0.24609l0.007813-0.015626c-0.22656 0.65234-0.49609 1.2891-0.79688 1.9102-0.18359 0.33203-0.37891 0.65625-0.59375 0.96875-0.19922 0.27344-0.40625 0.54297-0.625 0.80469-0.11328 0.12891-0.23047 0.25-0.35156 0.37109-0.10547 0.082031-0.20703 0.16016-0.31641 0.23828h0.003906c-0.55078 0.32031-1.1289 0.58594-1.7305 0.79688-1.2617 0.38281-2.5703 0.60547-3.8867 0.66016-1.1641 0.0625-2.3203 0.074219-3.4844 0.023438-1.0625-0.070312-2.1172-0.22266-3.1562-0.45312-1.1172-0.21875-2.2344-0.45703-3.3438-0.72266-0.68359-0.19531-1.3555-0.41016-2.0312-0.64453-0.69531-0.24609-1.375-0.57422-2.0547-0.88672-1.3945-0.64062-2.7969-1.2617-4.1914-1.8867l0.003906 0.003906c-1.375-0.62891-2.7109-1.332-4.0078-2.1055-1.2891-0.75-2.543-1.5547-3.8516-2.2656-1.2969-0.70312-2.6328-1.3359-3.9023-2.1016-0.77734-0.46484-1.5352-0.95703-2.2891-1.457-0.042969-0.050781-0.085938-0.10547-0.12891-0.15625v0.003906c-0.20703-0.23438-0.39844-0.48047-0.57812-0.73438-0.28906-0.44922-0.53125-0.92969-0.72656-1.4297-0.19922-0.46094-0.35547-0.94141-0.46875-1.4297-0.097656-0.46094-0.16797-0.92578-0.20703-1.3906-0.082032-0.80078-0.089844-1.6094-0.027344-2.4141 0.12109-0.79688 0.3125-1.5859 0.57422-2.3477 0.12109-0.3125 0.25781-0.62109 0.41016-0.92188 0.027344-0.050781 0.054687-0.097656 0.085937-0.14844 0.097657-0.082031 0.19531-0.15625 0.29688-0.23047h-0.003907c0.32812-0.1875 0.67578-0.34375 1.0312-0.46875 0.89453-0.28906 1.8438-0.34766 2.7656-0.17188 1.1367 0.41406 2.1836 1.0508 3.0703 1.8789 0.8125 0.72656 1.4609 1.6172 1.9102 2.6133 0.30859 0.67578 0.46484 1.4102 0.46094 2.1562-0.023437 0.12891-0.054687 0.25781-0.09375 0.38672-0.015624 0.039063-0.035156 0.078125-0.054687 0.11719-0.027344 0.042969-0.050781 0.085937-0.078125 0.12891l-0.003906 0.003906c-0.03125 0.023438-0.0625 0.046875-0.09375 0.074219-0.15625 0.09375-0.3125 0.17188-0.47656 0.25-0.58594 0.21094-1.2148 0.26562-1.8281 0.16016-0.12891-0.042968-0.25391-0.09375-0.375-0.15625-0.007812-0.003906-0.019531 0.011719-0.015625 0.019532 0.1875 0.35156 0.48438 0.63281 0.84375 0.79687 0.30078 0.14063 0.63281 0.20703 0.96484 0.19531 0.33203-0.039063 0.64453-0.17578 0.89844-0.39453 0.44922-0.38281 0.83984-0.82812 1.1641-1.3203 1.2266-1.7031 1.2695-3.9883 0.10547-5.7344-0.51562-0.75781-1.1562-1.4219-1.8945-1.9609-0.83984-0.67578-1.8008-1.1836-2.8281-1.4961-0.89844-0.21094-1.8359-0.18359-2.7188 0.082031-0.97656 0.24219-1.8867 0.70703-2.6523 1.3633-0.50391 0.42578-0.94141 0.91797-1.3086 1.4648-0.26562 0.41406-0.50391 0.84766-0.71484 1.293-0.22266 0.47266-0.41406 0.95703-0.57031 1.457-0.16406 0.51172-0.30078 1.0273-0.41016 1.5547-0.12891 0.62891-0.19141 1.2695-0.1875 1.9102 0.011718 0.84766 0.09375 1.6875 0.24609 2.5195-0.58594-0.41016-1.168-0.82422-1.75-1.25-1.293-0.95312-2.5742-1.9297-3.9062-2.8203zm17.559 1.9258c0.023437-0.035156 0.046875-0.070313 0.070313-0.10156-0.023438 0.035157-0.046876 0.070313-0.070313 0.10547zm-9.3008-6.4375 0.023437-0.027344z"/>
</svg>